<?xml version="1.0" standalone="no"?>
<!DOCTYPE svg PUBLIC "-//W3C//DTD SVG 20010904//EN"
 "http://www.w3.org/TR/2001/REC-SVG-20010904/DTD/svg10.dtd">
<svg version="1.0" xmlns="http://www.w3.org/2000/svg"
 width="700.000000pt" height="700.000000pt" viewBox="0 0 700.000000 700.000000"
 preserveAspectRatio="xMidYMid meet">
<metadata>
Created by potrace 1.14, written by Peter Selinger 2001-2017
</metadata>
<g transform="translate(0.000000,700.000000) scale(0.100000,-0.100000)"
fill="#000000" stroke="none">
<path d="M3397 6969 c-252 -36 -515 -198 -689 -425 -89 -116 -189 -299 -234
-428 -13 -36 -13 -41 3 -50 232 -136 467 -357 618 -580 155 -230 290 -583 331
-871 3 -16 7 -41 10 -53 3 -13 7 -43 10 -65 3 -23 9 -67 14 -97 5 -30 12 -93
15 -140 l7 -86 -37 -2 c-21 -2 -40 -3 -44 -4 -17 -2 -28 3 -28 15 -1 36 -90
307 -148 448 -235 573 -602 999 -1040 1209 -224 107 -417 150 -645 144 -69 -1
-136 -5 -150 -8 -14 -3 -49 -11 -78 -17 -293 -60 -563 -267 -680 -519 -37 -79
-70 -170 -77 -210 -3 -16 -8 -45 -11 -62 -21 -112 -15 -400 10 -464 4 -10 18
-9 63 3 79 22 265 21 363 -1 41 -9 83 -19 93 -21 28 -6 127 -53 127 -60 0 -3
-4 -3 -10 0 -10 6 -228 7 -270 0 -24 -3 -62 -10 -105 -19 -111 -23 -285 -104
-382 -179 -210 -162 -357 -413 -391 -667 -8 -63 -7 -214 2 -283 4 -33 20 -99
37 -149 82 -253 247 -456 506 -625 79 -51 276 -153 299 -153 6 0 47 49 91 108
379 507 845 747 1608 827 100 11 245 16 245 9 1 -5 3 -25 6 -45 l5 -36 -88
-22 c-710 -183 -1235 -514 -1540 -971 -278 -415 -334 -907 -147 -1291 85 -173
220 -321 373 -407 153 -85 323 -131 504 -136 93 -2 256 10 265 19 2 2 -1 21
-7 42 -23 85 -17 252 14 396 14 66 67 197 80 197 3 0 3 -17 0 -38 -10 -65 -7
-224 5 -297 79 -494 488 -855 975 -858 192 -2 315 27 480 111 204 103 410 319
542 567 83 155 84 134 -10 206 -138 106 -280 245 -375 366 -45 57 -102 141
-102 149 0 4 -6 15 -14 23 -70 81 -210 439 -241 620 -3 19 -7 37 -9 40 -2 3
-7 31 -11 61 -4 30 -9 58 -10 61 -2 3 -7 31 -10 63 -4 31 -8 66 -10 78 -10 49
-19 202 -19 323 l-1 129 35 2 c19 0 60 4 90 8 l55 6 13 -42 c31 -101 130 -334
200 -471 67 -133 225 -388 263 -427 8 -8 22 -25 30 -37 32 -46 117 -141 199
-222 261 -258 551 -417 887 -487 107 -22 347 -25 457 -5 389 69 689 317 804
666 40 120 47 171 47 340 0 136 -7 200 -31 291 -8 30 -14 57 -14 60 0 2 -15
-2 -34 -10 -92 -38 -280 -52 -416 -30 -67 11 -185 45 -198 58 -3 3 26 5 64 5
216 -2 423 61 604 184 64 43 210 192 252 257 128 197 179 377 173 600 -11 409
-264 755 -706 964 -110 52 -225 94 -232 85 -2 -2 -30 -47 -62 -99 -263 -422
-603 -684 -1100 -844 -44 -15 -89 -28 -100 -31 -11 -2 -47 -11 -80 -19 -50
-12 -113 -26 -237 -51 -9 -2 -38 -7 -65 -11 -26 -3 -55 -8 -63 -9 -8 -2 -40
-6 -70 -10 -30 -4 -62 -9 -71 -10 -13 -3 -19 7 -24 42 -3 25 -5 46 -3 48 2 2
33 12 70 23 218 67 503 191 684 297 86 50 239 150 254 165 3 3 39 32 80 64 81
64 241 222 304 299 157 193 270 410 330 637 34 123 41 187 41 345 0 154 -8
218 -41 332 -102 354 -355 603 -699 692 -86 22 -105 24 -255 26 -118 3 -175
-1 -238 -14 -45 -10 -84 -20 -87 -22 -2 -3 3 -27 11 -54 36 -116 28 -352 -17
-491 -35 -109 -44 -107 -44 8 0 132 -9 194 -40 298 -51 171 -132 308 -255 431
-68 68 -192 160 -237 176 -10 3 -25 12 -33 19 -28 23 -191 75 -285 90 -56 9
-240 11 -298 3z"/>
</g>
</svg>
